<svg width="800" height="800" viewBox="0 0 800 800" fill="none" xmlns="http://www.w3.org/2000/svg">
  <defs>
    <linearGradient id="bg" x1="86" y1="60" x2="694" y2="738" gradientUnits="userSpaceOnUse">
      <stop stop-color="#FFE8D7"/>
      <stop offset="0.5" stop-color="#F6B9A5"/>
      <stop offset="1" stop-color="#A86C5C"/>
    </linearGradient>
    <linearGradient id="panel" x1="160" y1="500" x2="643" y2="730" gradientUnits="userSpaceOnUse">
      <stop stop-color="white" stop-opacity="0.96"/>
      <stop offset="1" stop-color="#FFF4EE" stop-opacity="0.92"/>
    </linearGradient>
    <filter id="shadow" x="118" y="463" width="567" height="285" filterUnits="userSpaceOnUse" color-interpolation-filters="sRGB">
      <feFlood flood-opacity="0" result="BackgroundImageFix"/>
      <feColorMatrix in="SourceAlpha" type="matrix" values="0 0 0 0 0 0 0 0 0 0 0 0 0 0 0 0 0 0 127 0" result="hardAlpha"/>
      <feOffset dy="18"/>
      <feGaussianBlur stdDeviation="20"/>
      <feColorMatrix type="matrix" values="0 0 0 0 0.247059 0 0 0 0 0.12549 0 0 0 0 0.0862745 0 0 0 0.16 0"/>
      <feBlend mode="normal" in2="BackgroundImageFix" result="effect1_dropShadow_0_1"/>
      <feBlend mode="normal" in="SourceGraphic" in2="effect1_dropShadow_0_1" result="shape"/>
    </filter>
  </defs>
  <rect width="800" height="800" rx="52" fill="url(#bg)"/>
  <circle cx="183" cy="192" r="126" fill="#FFF8F2" fill-opacity="0.24"/>
  <circle cx="628" cy="186" r="154" fill="#FFD5C4" fill-opacity="0.34"/>
  <circle cx="626" cy="382" r="220" fill="#8D584B" fill-opacity="0.24"/>
  <path d="M92 611C160 560.333 224.333 535 285 535C375.5 535 429.5 585 517 585C575.333 585 646 559.333 729 508" stroke="#FFF6F0" stroke-opacity="0.6" stroke-width="26" stroke-linecap="round"/>
  <g filter="url(#shadow)">
    <rect x="158" y="485" width="487" height="205" rx="34" fill="url(#panel)"/>
  </g>
  <rect x="196" y="520" width="108" height="34" rx="17" fill="#111827" fill-opacity="0.82"/>
  <rect x="196" y="574" width="352" height="34" rx="17" fill="#C3563D" fill-opacity="0.22"/>
  <rect x="196" y="625" width="270" height="20" rx="10" fill="#7C2D12" fill-opacity="0.16"/>
  <rect x="196" y="657" width="205" height="20" rx="10" fill="#7C2D12" fill-opacity="0.12"/>
</svg>
