<svg width="800" height="800" viewBox="0 0 800 800" fill="none" xmlns="http://www.w3.org/2000/svg">
  <defs>
    <linearGradient id="bg" x1="106" y1="58" x2="676" y2="734" gradientUnits="userSpaceOnUse">
      <stop stop-color="#DCE7FF"/>
      <stop offset="0.5" stop-color="#B7C8FF"/>
      <stop offset="1" stop-color="#8668D1"/>
    </linearGradient>
    <linearGradient id="card" x1="219" y1="242" x2="588" y2="587" gradientUnits="userSpaceOnUse">
      <stop stop-color="white" stop-opacity="0.98"/>
      <stop offset="1" stop-color="#F8F6FF" stop-opacity="0.92"/>
    </linearGradient>
    <filter id="shadow" x="168" y="193" width="464" height="425" filterUnits="userSpaceOnUse" color-interpolation-filters="sRGB">
      <feFlood flood-opacity="0" result="BackgroundImageFix"/>
      <feColorMatrix in="SourceAlpha" type="matrix" values="0 0 0 0 0 0 0 0 0 0 0 0 0 0 0 0 0 0 127 0" result="hardAlpha"/>
      <feOffset dy="18"/>
      <feGaussianBlur stdDeviation="22"/>
      <feColorMatrix type="matrix" values="0 0 0 0 0.172549 0 0 0 0 0.121569 0 0 0 0 0.364706 0 0 0 0.18 0"/>
      <feBlend mode="normal" in2="BackgroundImageFix" result="effect1_dropShadow_0_1"/>
      <feBlend mode="normal" in="SourceGraphic" in2="effect1_dropShadow_0_1" result="shape"/>
    </filter>
  </defs>
  <rect width="800" height="800" rx="52" fill="url(#bg)"/>
  <circle cx="180" cy="171" r="112" fill="#FFFFFF" fill-opacity="0.18"/>
  <circle cx="637" cy="166" r="144" fill="#F7D8FF" fill-opacity="0.28"/>
  <circle cx="652" cy="635" r="170" fill="#7C5DCC" fill-opacity="0.22"/>
  <path d="M120 624C207.667 542.667 290 502 367 502C442 502 512.667 540.333 579 617" stroke="#FFFFFF" stroke-opacity="0.42" stroke-width="32" stroke-linecap="round"/>
  <g filter="url(#shadow)">
    <rect x="212" y="224" width="376" height="337" rx="40" fill="url(#card)"/>
  </g>
  <rect x="329" y="258" width="142" height="42" rx="21" fill="#6D5CE8" fill-opacity="0.14"/>
  <rect x="274" y="330" width="252" height="34" rx="17" fill="#4338CA" fill-opacity="0.14"/>
  <rect x="245" y="382" width="310" height="34" rx="17" fill="#4338CA" fill-opacity="0.12"/>
  <rect x="290" y="450" width="220" height="20" rx="10" fill="#312E81" fill-opacity="0.14"/>
  <rect x="310" y="482" width="180" height="20" rx="10" fill="#312E81" fill-opacity="0.1"/>
</svg>
