<svg width="1200" height="1500" viewBox="0 0 1200 1500" fill="none" xmlns="http://www.w3.org/2000/svg">
  <rect width="1200" height="1500" rx="72" fill="#D9E3F3"/>
  <rect x="46" y="46" width="1108" height="1408" rx="56" fill="url(#bg1)"/>
  <ellipse cx="280" cy="360" rx="160" ry="130" fill="#7A5D49" opacity="0.34"/>
  <ellipse cx="870" cy="350" rx="220" ry="170" fill="#9AB2C6" opacity="0.4"/>
  <rect x="120" y="990" width="960" height="250" rx="40" fill="#EEE6DD" opacity="0.55"/>
  <rect x="138" y="788" width="924" height="430" rx="54" fill="white" fill-opacity="0.86"/>
  <rect x="200" y="874" width="800" height="20" rx="10" fill="#D4DCE5"/>
  <rect x="200" y="926" width="760" height="20" rx="10" fill="#D4DCE5"/>
  <rect x="200" y="978" width="720" height="20" rx="10" fill="#D4DCE5"/>
  <circle cx="244" cy="300" r="82" fill="#E2C6B7"/>
  <path d="M142 460C142 371.634 213.634 300 302 300H376C464.366 300 536 371.634 536 460V720H142V460Z" fill="#F0D8C8"/>
  <rect x="420" y="498" width="350" height="220" rx="26" fill="#6B8799"/>
  <rect x="446" y="522" width="298" height="164" rx="16" fill="#CEE1EE"/>
  <rect x="804" y="602" width="180" height="36" rx="18" fill="#C5D6E5"/>
  <rect x="780" y="642" width="230" height="36" rx="18" fill="#C5D6E5"/>
  <defs>
    <linearGradient id="bg1" x1="174" y1="112" x2="1062" y2="1382" gradientUnits="userSpaceOnUse">
      <stop stop-color="#F4EEE8"/>
      <stop offset="0.52" stop-color="#E6D6C7"/>
      <stop offset="1" stop-color="#C7D6E4"/>
    </linearGradient>
  </defs>
</svg>
